<svg width="352" height="293" viewBox="0 0 352 293" fill="none" xmlns="http://www.w3.org/2000/svg">
<path d="M346.402 34.085C338.581 37.5554 330.462 40.2933 322.131 42.2754C331.311 33.5465 338.213 22.6286 342.106 10.4422C343.218 6.96317 339.442 3.95478 336.302 5.81752C324.713 12.6965 312.229 17.8571 299.197 21.1574C298.441 21.349 297.661 21.446 296.879 21.446C294.505 21.446 292.197 20.564 290.382 18.9632C276.517 6.73472 258.684 0 240.17 0C232.158 0 224.07 1.24956 216.128 3.71432C191.521 11.3516 172.535 31.6632 166.578 56.723C164.343 66.1226 163.738 75.5308 164.778 84.6856C164.897 85.7376 164.401 86.4719 164.094 86.8163C163.556 87.42 162.793 87.7661 162.001 87.7661C161.913 87.7661 161.822 87.7618 161.732 87.7532C107.868 82.7456 59.297 56.778 24.9642 14.6348C23.2135 12.4853 19.8562 12.7489 18.4607 15.1441C11.7375 26.6864 8.18447 39.8879 8.18447 53.3213C8.18447 73.9085 16.4499 93.3097 30.8069 107.453C24.7694 106.021 18.9259 103.765 13.4977 100.748C10.8715 99.2878 7.64036 101.164 7.60346 104.17C7.22756 134.754 25.1213 161.967 51.9267 174.222C51.3869 174.235 50.8471 174.241 50.3064 174.241C46.0574 174.241 41.7552 173.83 37.5207 173.02C34.5633 172.455 32.0788 175.263 32.9971 178.132C41.6977 205.314 65.0857 225.35 93.0737 229.899C69.8453 245.502 42.7953 253.733 14.6417 253.733L5.86472 253.728C3.1605 253.728 0.87336 255.492 0.184215 258.113C-0.494631 260.694 0.755785 263.418 3.0618 264.76C34.7865 283.235 70.973 293 107.725 293C139.895 293 169.988 286.611 197.167 274.013C222.084 262.463 244.102 245.952 262.61 224.94C279.852 205.366 293.334 182.77 302.682 157.781C311.593 133.96 316.302 108.543 316.302 84.2768V83.1209C316.302 79.2245 318.063 75.5582 321.135 73.0626C332.794 63.59 342.947 52.4393 351.31 39.9205C353.518 36.615 350.035 32.4722 346.402 34.085Z" fill="#FF4B31"/>
</svg>
